<?xml version="1.0" encoding="utf-8"?>
<!-- Generator: Adobe Illustrator 23.0.5, SVG Export Plug-In . SVG Version: 6.00 Build 0)  -->
<svg version="1.1" xmlns="http://www.w3.org/2000/svg" xmlns:xlink="http://www.w3.org/1999/xlink" x="0px" y="0px"
	 viewBox="0 0 537 330" style="enable-background:new 0 0 537 330;" xml:space="preserve">
<style type="text/css">
	.st0{fill:#FFFFFF;stroke:#000000;stroke-miterlimit:10;}
	.st1{fill:#94B0B7;}
	.st2{fill:#7697A0;}
</style>
<g id="Capa_1">
	<path class="st0" d="M1000.5-146.5"/>
	<path class="st0" d="M512.5-555.5"/>
	<path class="st0" d="M598.5,2.5"/>
	<path class="st0" d="M1006.5,352.5"/>
	<path class="st0" d="M73.5,4.5"/>
	<path class="st0" d="M481.5,354.5"/>
	<path class="st0" d="M1098.5-147.5"/>
</g>
<g id="Capa_2">
	<g>
		<path class="st1" d="M328,143.2L305.5,182l-84-130.3C207.1,29.4,223.1,0,249.7,0h33.4L350,103.5L328,143.2z"/>
	</g>
	<g>
		<path class="st2" d="M76,281H12.6c-9.3,0-15.3-7.9-10.9-14.4L171.9,14.1C177.7,5.4,189.1,0,201.5,0H283L177.2,157l-75.3,111.7
			C96.8,276.3,86.9,281,76,281z"/>
	</g>
	<g>
		<path class="st1" d="M210,186.8l22.5-38.8l66.4,103c22,34.1-2.5,79.1-43.1,79.1h-0.9L188,226.5L210,186.8z"/>
	</g>
	<g>
		<path class="st2" d="M457.7,47l65.5,0c10.4,0,17.1,8.7,12.3,15.9L374.2,308.2c-8.8,13.4-26.4,21.8-45.5,21.8l-73.7,0l104-158.1
			l74.5-113.3C438.2,51.5,447.5,47,457.7,47z"/>
	</g>
</g>
</svg>
